PathFileType	4	(X/Y/Z)	/Users/itak/Documents/Research/Walk-IL/dataset/trc/00243_00009.trc
DataRate	CameraRate	NumFrames	NumMarkers	Units	OrigDataRate	OrigDataStartFrame	OrigNumFrames
100.000000	100.000000	4	53	mm	100.000000	206	827
Frame#	Time	RPSI			LPSI			L3			STRN			T10			C7			CLAV			RBAK			LBAK			LSHO			LUPA			LAEL			LAOL			LWTS			LWPS			LFRA			LIFD			LHPS			LHTS			RSHO			RUPA			RAEL			RAOL			RWTS			RWPS			RFRA			RIFD			RHTS			RHPS			RBHD			LFHD			RFHD			LBHD			LHIP			RHIP			RASI			LASI			LKNE			LTHI			LANK			LTIP			LTOE			LMT1			LHEE			RKNE			RTHI			RANK			RTIP			RTOE			RMT1			RMT5			RHEE			LMT5			
		X1	Y1	Z1	X2	Y2	Z2	X3	Y3	Z3	X4	Y4	Z4	X5	Y5	Z5	X6	Y6	Z6	X7	Y7	Z7	X8	Y8	Z8	X9	Y9	Z9	X10	Y10	Z10	X11	Y11	Z11	X12	Y12	Z12	X13	Y13	Z13	X14	Y14	Z14	X15	Y15	Z15	X16	Y16	Z16	X17	Y17	Z17	X18	Y18	Z18	X19	Y19	Z19	X20	Y20	Z20	X21	Y21	Z21	X22	Y22	Z22	X23	Y23	Z23	X24	Y24	Z24	X25	Y25	Z25	X26	Y26	Z26	X27	Y27	Z27	X28	Y28	Z28	X29	Y29	Z29	X30	Y30	Z30	X31	Y31	Z31	X32	Y32	Z32	X33	Y33	Z33	X34	Y34	Z34	X35	Y35	Z35	X36	Y36	Z36	X37	Y37	Z37	X38	Y38	Z38	X39	Y39	Z39	X40	Y40	Z40	X41	Y41	Z41	X42	Y42	Z42	X43	Y43	Z43	X44	Y44	Z44	X45	Y45	Z45	X46	Y46	Z46	X47	Y47	Z47	X48	Y48	Z48	X49	Y49	Z49	X50	Y50	Z50	X51	Y51	Z51	X52	Y52	Z52	X53	Y53	Z53	

207	2.06	-174.0319671630859	1040.78515625	656.163330078125	-260.6625366210938	1052.392456054688	738.2328491210938	-231.8554077148438	1137.16455078125	711.4025268554688	-411.3484802246094	1299.81494140625	520.98193359375	-234.3506011962891	1263.106689453125	709.1351928710938	-293.9411926269531	1518.849975585938	648.0911254882812	-399.4180603027344	1420.047485351562	529.6409301757812	-178.5764007568359	1387.537841796875	663.321044921875	-363.3004760742188	1483.592163085938	739.6693115234375	-462.0653076171875	1479.502075195312	705.7916259765625	-514.8016967773438	1370.8671875	779.7091674804688	-589.0917358398438	1172.080200195312	780.1453857421875	-515.7244873046875	1135.2353515625	809.466552734375	-646.3446655273438	976.1235961914062	626.1702880859375	-701.9070434570312	958.7826538085938	687.27587890625	-637.597412109375	1077.730346679688	749.8163452148438	-710.787353515625	800.884765625	577.6281127929688	-734.1659545898438	884.4572143554688	649.5464477539062	-711.4263916015625	899.9213256835938	586.2163696289062	-207.0519714355469	1473.120727539062	492.1460571289062	-141.1853942871094	1409.759399414062	464.5018310546875	-86.73831939697266	1130.006469726562	471.728759765625	-133.1129608154297	1124.318359375	554.4747924804688	-214.799072265625	923.3409423828125	387.9029235839844	-131.4993591308594	905.2535400390625	388.7094116210938	-94.64650726318359	1061.562744140625	442.8781433105469	-235.4247741699219	729.5546264648438	361.4076843261719	-231.3752136230469	806.2182006835938	341.00048828125	-159.5962829589844	802.6365966796875	350.9984130859375	-302.6106872558594	1672.436279296875	564.8804321289062	-499.6577453613281	1675.85498046875	451.2359619140625	-417.606689453125	1669.864990234375	393.880859375	-437.3507995605469	1676.15185546875	604.509765625	-430.7244873046875	990.9922485351562	769.2496337890625	-168.3708801269531	998.8201904296875	512.2183227539062	-261.8669128417969	1039.933471679688	469.1327209472656	-466.2287292480469	1023.179138183594	663.9478759765625	-400.7962341308594	504.1401977539062	730.1493530273438	-425.2081298828125	648.782958984375	746.6072998046875	-283.9000549316406	37.73701858520508	787.8502807617188	-342.9640502929688	283.9570617675781	772.385498046875	-419.965087890625	43.86167144775391	612.1532592773438	-340.4275207519531	42.02494430541992	620.1155395507812	-204.2190093994141	50.80489730834961	783.766357421875	-320.4933166503906	533.08984375	406.3050231933594	-230.8652801513672	791.0215454101562	433.3089904785156	-303.2087707519531	46.2059211730957	509.6264343261719	-343.8685302734375	412.8676147460938	412.662353515625	-463.2697143554688	75.61023712158203	380.1651916503906	-464.5072326660156	65.60945129394531	449.4784851074219	-353.8873291015625	46.27883148193359	409.899658203125	-307.9926452636719	51.89808654785156	593.8699340820312	-395.9486694335938	35.39819717407227	725.5054321289062	
208	2.07	-178.4638214111328	1040.174560546875	653.5955810546875	-265.7299194335938	1051.853759765625	734.9304809570312	-236.6218414306641	1136.5751953125	708.3372802734375	-414.6621398925781	1299.20361328125	516.5357666015625	-239.1242980957031	1262.49365234375	706.0092163085938	-298.2351379394531	1518.22705078125	644.4750366210938	-402.7456665039062	1419.413696289062	525.240478515625	-182.9297943115234	1386.875610351562	660.6012573242188	-368.1629028320312	1483.031494140625	735.5819091796875	-466.7233581542969	1478.95947265625	700.8340454101562	-520.1580810546875	1370.371948242188	774.2294311523438	-594.9190063476562	1171.815063476562	773.7997436523438	-521.9945068359375	1134.707397460938	803.7578125	-651.09228515625	976.9456787109375	618.1621704101562	-707.3901977539062	959.380126953125	678.5700073242188	-643.2877197265625	1077.71435546875	742.417236328125	-716.3489379882812	802.3309326171875	567.2385864257812	-739.5203857421875	885.4922485351562	639.9186401367188	-716.0791015625	901.3646850585938	576.9591064453125	-210.1429290771484	1472.42822265625	489.2085266113281	-144.0986328125	1409.071655273438	462.0429992675781	-89.57506561279297	1129.390380859375	469.5191040039062	-136.6549530029297	1123.661743164062	551.9273071289062	-216.1295623779297	921.933349609375	385.27099609375	-132.7189636230469	904.303466796875	386.6366577148438	-97.04991149902344	1060.889404296875	440.7433471679688	-235.5670318603516	727.9611206054688	359.8536682128906	-231.8159637451172	804.53173828125	338.7291870117188	-160.1079559326172	801.357421875	349.1295166015625	-306.1927490234375	1671.843872070312	561.2381591796875	-502.1618957519531	1675.262939453125	445.8484497070312	-419.6255493164062	1669.213989257812	389.2310180664062	-441.2338256835938	1675.620971679688	599.6748046875	-435.9450073242188	990.4823608398438	764.8599853515625	-171.8931274414062	998.0758666992188	509.7033386230469	-264.9388427734375	1039.170654296875	465.8727416992188	-469.6912231445312	1021.933532714844	660.0722045898438	-402.2890625	503.9358520507812	728.559326171875	-427.9689636230469	648.3460083007812	743.72509765625	-283.9002380371094	37.86896133422852	787.7334594726562	-343.5658569335938	284.1368408203125	771.8384399414062	-419.9735412597656	43.85102081298828	612.1231079101562	-340.4955444335938	42.05253601074219	620.1066284179688	-204.2239379882812	51.27222442626953	783.7421875	-323.5787048339844	532.5763549804688	403.1266479492188	-232.982421875	790.4218139648438	430.5312805175781	-323.2623291015625	43.2386474609375	497.593505859375	-349.9381408691406	412.744384765625	407.3197937011719	-478.5913696289062	78.91607666015625	363.9079895019531	-482.1699523925781	68.09674072265625	432.96240234375	-371.1010437011719	46.18372344970703	396.5138854980469	-330.3729553222656	47.7545166015625	581.7308959960938	-395.9673461914062	35.40021133422852	725.5349731445312	
209	2.08	-182.9094696044922	1039.487060546875	650.8876342773438	-270.7806396484375	1051.2578125	731.4918823242188	-241.3697052001953	1135.91650390625	705.13427734375	-417.9538879394531	1298.550903320312	511.9933166503906	-243.8629302978516	1261.812133789062	702.7445068359375	-302.4754638671875	1517.540893554688	640.75732421875	-406.0506896972656	1418.739501953125	520.7547607421875	-187.2514190673828	1386.146484375	657.7496948242188	-372.9426574707031	1482.411865234375	731.4081420898438	-471.3104248046875	1478.356811523438	695.8072509765625	-525.405517578125	1369.807739257812	768.6984252929688	-600.5380249023438	1171.448120117188	767.4680786132812	-528.0413208007812	1134.123168945312	798.0721435546875	-655.507568359375	977.5568237304688	610.2919311523438	-712.5285034179688	959.7609252929688	670.006103515625	-648.70654296875	1077.543334960938	735.0694580078125	-721.3487548828125	803.520263671875	557.1261596679688	-744.4778442382812	886.2951049804688	630.4780883789062	-720.322265625	902.5223388671875	567.8826904296875	-213.224853515625	1471.684204101562	486.1539001464844	-146.9966735839844	1408.338745117188	459.4648132324219	-92.35942077636719	1128.73779296875	467.1964721679688	-140.1436004638672	1122.970458984375	549.275146484375	-217.3954010009766	920.4636840820312	382.6014099121094	-133.8731384277344	903.3087768554688	384.5021057128906	-99.40723419189453	1060.174682617188	438.5115356445312	-235.6221923828125	726.3079223632812	358.3265686035156	-232.1968994140625	802.771728515625	336.4525451660156	-160.5591583251953	800.0227661132812	347.2358703613281	-309.7319641113281	1671.1962890625	557.5437622070312	-504.6114196777344	1674.646606445312	440.4159545898438	-421.5919799804688	1668.539794921875	384.5422058105469	-445.0561218261719	1675.04833984375	594.7865600585938	-441.1592712402344	989.9387817382812	760.3556518554688	-175.4301605224609	997.2269287109375	507.0598754882812	-268.0521240234375	1038.327758789062	462.5071716308594	-473.3283996582031	1020.754516601562	655.9503173828125	-403.8091735839844	503.7583312988281	726.9208374023438	-430.7144470214844	647.90771484375	740.789306640625	-283.8897705078125	38.02874755859375	787.6112670898438	-344.197509765625	284.3440856933594	771.2665405273438	-419.98388671875	43.8400764465332	612.0965576171875	-340.5615234375	42.08216857910156	620.107666015625	-204.2432403564453	51.79777526855469	783.7135009765625	-326.6512451171875	531.83447265625	400.1820678710938	-235.1437835693359	789.6481323242188	427.777587890625	-342.8616333007812	40.79438018798828	485.6419982910156	-355.8615112304688	412.552001953125	402.2046508789062	-492.8858947753906	82.32608795166016	347.6296691894531	-498.9426879882812	70.88157653808594	416.3438720703125	-387.5414733886719	46.34576797485352	383.2763977050781	-352.4749145507812	44.33080673217773	569.5517578125	-395.984619140625	35.40207290649414	725.5594482421875	
210	2.09	-187.3666229248047	1038.718627929688	648.0316162109375	-275.8111877441406	1050.601318359375	727.914306640625	-246.0992126464844	1135.18408203125	701.7918090820312	-421.22314453125	1297.854248046875	507.3493041992188	-248.5664825439453	1261.057373046875	699.3414916992188	-306.6599731445312	1516.790283203125	636.9360961914062	-409.330078125	1418.022705078125	516.1801147460938	-191.5416412353516	1385.345458984375	654.769287109375	-377.6451110839844	1481.729248046875	727.1436767578125	-475.8265991210938	1477.6884765625	690.7079467773438	-530.5445556640625	1369.172729492188	763.1163330078125	-605.9540405273438	1170.975219726562	761.1568603515625	-533.8626708984375	1133.476196289062	792.4161987304688	-659.6039428710938	977.9505004882812	602.5694580078125	-717.3329467773438	959.9216918945312	661.5917358398438	-653.8656005859375	1077.215454101562	727.7907104492188	-725.7975463867188	804.4384155273438	547.3115234375	-749.05029296875	886.8543701171875	621.2418212890625	-724.1693115234375	903.3818359375	558.9998168945312	-216.2880706787109	1470.883056640625	482.9844360351562	-149.8702392578125	1407.552490234375	456.7723999023438	-95.09732818603516	1128.037353515625	464.7741088867188	-143.5872344970703	1122.234252929688	546.525390625	-218.6066589355469	918.9326782226562	379.8849792480469	-134.97509765625	902.2645263671875	382.3076782226562	-101.725944519043	1059.408569335938	436.1939392089844	-235.6092834472656	724.6026611328125	356.7886962890625	-232.5235137939453	800.9421997070312	334.148193359375	-160.9562072753906	798.635986328125	345.3062744140625	-313.22412109375	1670.487915039062	553.7947387695312	-507.0060119628906	1674.002563476562	434.9365539550781	-423.5061340332031	1667.84130859375	379.8131408691406	-448.8173522949219	1674.427978515625	589.8442993164062	-446.3625183105469	989.3613891601562	755.7373046875	-178.9847106933594	996.270751953125	504.2799987792969	-271.2085571289062	1037.40283203125	459.0299377441406	-477.2052612304688	1019.682922363281	651.5247192382812	-405.3664245605469	503.5978698730469	725.2283325195312	-433.4507141113281	647.47021484375	737.8072509765625	-283.8677673339844	38.21643829345703	787.485595703125	-344.87060546875	284.5778198242188	770.6640625	-419.9962463378906	43.82831192016602	612.0733642578125	-340.6239318847656	42.11328887939453	620.1183471679688	-204.2729644775391	52.37758255004883	783.6771240234375	-329.7650451660156	530.8750610351562	397.4520874023438	-237.3819732666016	788.6966552734375	425.0314331054688	-361.9000244140625	38.83787155151367	473.8182067871094	-361.6566162109375	412.2890930175781	397.3184509277344	-506.0577392578125	85.78996276855469	331.3908996582031	-514.7105712890625	73.90390777587891	399.678466796875	-403.1083068847656	46.72795104980469	370.2457885742188	-374.1807861328125	41.59203338623047	557.3704223632812	-396	35.40274047851562	725.580810546875	
